<mxfile host="Electron" modified="2024-01-02T22:28:19.150Z" agent="Mozilla/5.0 (Windows NT 10.0; Win64; x64) AppleWebKit/537.36 (KHTML, like Gecko) draw.io/22.1.16 Chrome/120.0.6099.109 Electron/28.1.0 Safari/537.36" etag="InWHazTdfrh6SkSkBg4G" version="22.1.16" type="device">
  <diagram name="Page-1" id="i0_o2ARXLJ6j_lircmFi">
    <mxGraphModel dx="1036" dy="606" grid="1" gridSize="10" guides="1" tooltips="1" connect="1" arrows="1" fold="1" page="1" pageScale="1" pageWidth="1100" pageHeight="850" math="0" shadow="0">
      <root>
        <mxCell id="0" />
        <mxCell id="1" parent="0" />
        <mxCell id="uhhtUNB6FmitXAAVwI5m-48" value="" style="group" parent="1" vertex="1" connectable="0">
          <mxGeometry x="14" y="6" width="1070" height="840" as="geometry" />
        </mxCell>
        <mxCell id="mXI2qHtpMhk3_PRG1ky6-10" value="" style="rounded=1;whiteSpace=wrap;html=1;strokeWidth=2;dashed=1;dashPattern=1 1;fillColor=#76608a;fontColor=#ffffff;strokeColor=#432D57;" parent="uhhtUNB6FmitXAAVwI5m-48" vertex="1">
          <mxGeometry x="30" y="60" width="620" height="750" as="geometry" />
        </mxCell>
        <mxCell id="mXI2qHtpMhk3_PRG1ky6-8" value="" style="rounded=1;whiteSpace=wrap;html=1;dashed=1;dashPattern=1 4;strokeWidth=2;fillColor=#dae8fc;strokeColor=#6c8ebf;" parent="uhhtUNB6FmitXAAVwI5m-48" vertex="1">
          <mxGeometry x="660" y="60" width="387" height="750" as="geometry" />
        </mxCell>
        <mxCell id="mXI2qHtpMhk3_PRG1ky6-4" value="" style="rounded=0;whiteSpace=wrap;html=1;fillColor=#e3c800;fontColor=#000000;strokeColor=#B09500;opacity=40;" parent="uhhtUNB6FmitXAAVwI5m-48" vertex="1">
          <mxGeometry x="490" y="660" width="570" height="126" as="geometry" />
        </mxCell>
        <mxCell id="mXI2qHtpMhk3_PRG1ky6-6" value="" style="rounded=0;whiteSpace=wrap;html=1;fillColor=#f9f7ed;opacity=60;strokeColor=#36393d;" parent="uhhtUNB6FmitXAAVwI5m-48" vertex="1">
          <mxGeometry y="80" width="1060" height="100" as="geometry" />
        </mxCell>
        <mxCell id="mXI2qHtpMhk3_PRG1ky6-5" value="" style="rounded=0;whiteSpace=wrap;html=1;fillColor=#e1d5e7;strokeColor=#9673a6;opacity=60;" parent="uhhtUNB6FmitXAAVwI5m-48" vertex="1">
          <mxGeometry y="500" width="1060" height="140" as="geometry" />
        </mxCell>
        <mxCell id="mXI2qHtpMhk3_PRG1ky6-11" value="&lt;b&gt;&lt;font color=&quot;#3333ff&quot; style=&quot;font-size: 17px;&quot;&gt;Public&lt;/font&gt;&lt;/b&gt;" style="rounded=1;whiteSpace=wrap;html=1;" parent="uhhtUNB6FmitXAAVwI5m-48" vertex="1">
          <mxGeometry x="829" y="790" width="112" height="20" as="geometry" />
        </mxCell>
        <mxCell id="mXI2qHtpMhk3_PRG1ky6-7" value="" style="rounded=0;whiteSpace=wrap;html=1;fillColor=#ffcc99;strokeColor=#36393d;opacity=50;" parent="uhhtUNB6FmitXAAVwI5m-48" vertex="1">
          <mxGeometry y="190" width="1060" height="290" as="geometry" />
        </mxCell>
        <mxCell id="mXI2qHtpMhk3_PRG1ky6-12" value="&lt;b&gt;&lt;font style=&quot;font-size: 17px;&quot;&gt;Private&lt;/font&gt;&lt;/b&gt;" style="rounded=1;whiteSpace=wrap;html=1;" parent="uhhtUNB6FmitXAAVwI5m-48" vertex="1">
          <mxGeometry x="330" y="790" width="112" height="20" as="geometry" />
        </mxCell>
        <mxCell id="uhhtUNB6FmitXAAVwI5m-1" value="&lt;b&gt;&lt;font style=&quot;font-size: 17px;&quot;&gt;Infrastructure&lt;/font&gt;&lt;/b&gt;" style="rounded=1;whiteSpace=wrap;html=1;rotatable=1;rotation=-90;" parent="uhhtUNB6FmitXAAVwI5m-48" vertex="1">
          <mxGeometry x="-40" y="714" width="120" height="20" as="geometry" />
        </mxCell>
        <mxCell id="uhhtUNB6FmitXAAVwI5m-2" value="&lt;b&gt;&lt;font style=&quot;font-size: 17px;&quot;&gt;LLM &lt;br&gt;Models&lt;/font&gt;&lt;/b&gt;" style="rounded=1;whiteSpace=wrap;html=1;rotatable=1;rotation=-90;" parent="uhhtUNB6FmitXAAVwI5m-48" vertex="1">
          <mxGeometry x="-33" y="544" width="120" height="50" as="geometry" />
        </mxCell>
        <mxCell id="uhhtUNB6FmitXAAVwI5m-3" value="&lt;b&gt;&lt;font style=&quot;font-size: 17px;&quot;&gt;Orchestration / Integration&lt;/font&gt;&lt;/b&gt;" style="rounded=1;whiteSpace=wrap;html=1;rotatable=1;rotation=-90;" parent="uhhtUNB6FmitXAAVwI5m-48" vertex="1">
          <mxGeometry x="-78.62" y="290.63" width="215" height="53.75" as="geometry" />
        </mxCell>
        <mxCell id="uhhtUNB6FmitXAAVwI5m-4" value="&lt;b&gt;&lt;font style=&quot;font-size: 17px;&quot;&gt;UI / HMI&lt;/font&gt;&lt;/b&gt;" style="rounded=1;whiteSpace=wrap;html=1;rotatable=1;rotation=-90;" parent="uhhtUNB6FmitXAAVwI5m-48" vertex="1">
          <mxGeometry x="-24.86" y="122.53" width="74.84" height="23.12" as="geometry" />
        </mxCell>
        <mxCell id="uhhtUNB6FmitXAAVwI5m-9" value="" style="rounded=0;whiteSpace=wrap;html=1;fillColor=#e3c800;fontColor=#000000;strokeColor=#B09500;opacity=40;" parent="uhhtUNB6FmitXAAVwI5m-48" vertex="1">
          <mxGeometry x="1" y="660" width="460" height="126" as="geometry" />
        </mxCell>
        <mxCell id="uhhtUNB6FmitXAAVwI5m-10" value="&lt;b&gt;Desktop&lt;/b&gt;" style="shape=parallelogram;perimeter=parallelogramPerimeter;whiteSpace=wrap;html=1;fixedSize=1;" parent="uhhtUNB6FmitXAAVwI5m-48" vertex="1">
          <mxGeometry x="88" y="704" width="110" height="40" as="geometry" />
        </mxCell>
        <mxCell id="uhhtUNB6FmitXAAVwI5m-11" value="&lt;b&gt;SSH&lt;/b&gt;" style="shape=parallelogram;perimeter=parallelogramPerimeter;whiteSpace=wrap;html=1;fixedSize=1;" parent="uhhtUNB6FmitXAAVwI5m-48" vertex="1">
          <mxGeometry x="320" y="712" width="110" height="40" as="geometry" />
        </mxCell>
        <mxCell id="uhhtUNB6FmitXAAVwI5m-12" value="&lt;font color=&quot;#007fff&quot; style=&quot;font-size: 16px;&quot;&gt;&lt;b&gt;Gamini&amp;nbsp;&lt;/b&gt;&lt;/font&gt;" style="rounded=0;whiteSpace=wrap;html=1;" parent="uhhtUNB6FmitXAAVwI5m-48" vertex="1">
          <mxGeometry x="805" y="517" width="90" height="40" as="geometry" />
        </mxCell>
        <mxCell id="uhhtUNB6FmitXAAVwI5m-13" value="&lt;span style=&quot;font-size: 16px;&quot;&gt;&lt;b&gt;&lt;font color=&quot;#0000cc&quot;&gt;GPT-4&lt;/font&gt;&lt;/b&gt;&lt;/span&gt;" style="rounded=0;whiteSpace=wrap;html=1;" parent="uhhtUNB6FmitXAAVwI5m-48" vertex="1">
          <mxGeometry x="919" y="517" width="90" height="40" as="geometry" />
        </mxCell>
        <mxCell id="uhhtUNB6FmitXAAVwI5m-14" value="&lt;span style=&quot;font-size: 16px;&quot;&gt;&lt;b&gt;&lt;font color=&quot;#0000ff&quot;&gt;GPT-3-Turbo&lt;/font&gt;&lt;/b&gt;&lt;/span&gt;" style="rounded=0;whiteSpace=wrap;html=1;" parent="uhhtUNB6FmitXAAVwI5m-48" vertex="1">
          <mxGeometry x="919" y="557" width="90" height="40" as="geometry" />
        </mxCell>
        <mxCell id="uhhtUNB6FmitXAAVwI5m-15" value="&lt;font color=&quot;#007fff&quot; style=&quot;font-size: 16px;&quot;&gt;&lt;b&gt;PaLM&lt;/b&gt;&lt;/font&gt;" style="rounded=0;whiteSpace=wrap;html=1;" parent="uhhtUNB6FmitXAAVwI5m-48" vertex="1">
          <mxGeometry x="805" y="559" width="90" height="40" as="geometry" />
        </mxCell>
        <mxCell id="uhhtUNB6FmitXAAVwI5m-16" value="HuggingFace LLM library (Open Source)&lt;br&gt;&lt;br&gt;&lt;br&gt;&lt;br&gt;" style="rounded=0;whiteSpace=wrap;html=1;" parent="uhhtUNB6FmitXAAVwI5m-48" vertex="1">
          <mxGeometry x="88" y="522" width="542" height="98" as="geometry" />
        </mxCell>
        <mxCell id="uhhtUNB6FmitXAAVwI5m-17" value="&lt;font color=&quot;#0000ff&quot; style=&quot;font-size: 16px;&quot;&gt;&lt;b&gt;Mistral&lt;/b&gt;&lt;/font&gt;" style="rounded=0;whiteSpace=wrap;html=1;" parent="uhhtUNB6FmitXAAVwI5m-48" vertex="1">
          <mxGeometry x="110" y="572" width="90" height="40" as="geometry" />
        </mxCell>
        <mxCell id="uhhtUNB6FmitXAAVwI5m-18" value="&lt;font color=&quot;#0000ff&quot; style=&quot;font-size: 16px;&quot;&gt;&lt;b&gt;Yi&lt;/b&gt;&lt;/font&gt;" style="rounded=0;whiteSpace=wrap;html=1;" parent="uhhtUNB6FmitXAAVwI5m-48" vertex="1">
          <mxGeometry x="210" y="572" width="90" height="40" as="geometry" />
        </mxCell>
        <mxCell id="uhhtUNB6FmitXAAVwI5m-19" value="&lt;font style=&quot;font-size: 18px;&quot;&gt;&lt;b&gt;Haystack&lt;/b&gt;&lt;/font&gt;" style="shape=document;whiteSpace=wrap;html=1;boundedLbl=1;" parent="uhhtUNB6FmitXAAVwI5m-48" vertex="1">
          <mxGeometry x="430" y="214" width="90" height="45" as="geometry" />
        </mxCell>
        <mxCell id="uhhtUNB6FmitXAAVwI5m-20" value="&lt;font style=&quot;font-size: 18px;&quot;&gt;&lt;b&gt;PrivateGPT&lt;/b&gt;&lt;/font&gt;" style="shape=document;whiteSpace=wrap;html=1;boundedLbl=1;" parent="uhhtUNB6FmitXAAVwI5m-48" vertex="1">
          <mxGeometry x="300" y="214" width="110" height="45" as="geometry" />
        </mxCell>
        <mxCell id="uhhtUNB6FmitXAAVwI5m-21" value="&lt;font style=&quot;font-size: 18px;&quot;&gt;&lt;b&gt;LangChain&lt;/b&gt;&lt;/font&gt;" style="shape=document;whiteSpace=wrap;html=1;boundedLbl=1;" parent="uhhtUNB6FmitXAAVwI5m-48" vertex="1">
          <mxGeometry x="536" y="214" width="104" height="45" as="geometry" />
        </mxCell>
        <mxCell id="uhhtUNB6FmitXAAVwI5m-22" value="&lt;font style=&quot;font-size: 18px;&quot;&gt;&lt;b&gt;AutoGen&lt;/b&gt;&lt;/font&gt;" style="shape=document;whiteSpace=wrap;html=1;boundedLbl=1;" parent="uhhtUNB6FmitXAAVwI5m-48" vertex="1">
          <mxGeometry x="910" y="214" width="110" height="45" as="geometry" />
        </mxCell>
        <mxCell id="uhhtUNB6FmitXAAVwI5m-23" value="&lt;font style=&quot;font-size: 18px;&quot;&gt;&lt;b&gt;LlamaIndex&lt;/b&gt;&lt;/font&gt;" style="shape=document;whiteSpace=wrap;html=1;boundedLbl=1;" parent="uhhtUNB6FmitXAAVwI5m-48" vertex="1">
          <mxGeometry x="595" y="277.25" width="110" height="45" as="geometry" />
        </mxCell>
        <mxCell id="uhhtUNB6FmitXAAVwI5m-24" value="&lt;font style=&quot;font-size: 18px;&quot;&gt;&lt;b&gt;LiteLLM&lt;/b&gt;&lt;/font&gt;" style="shape=document;whiteSpace=wrap;html=1;boundedLbl=1;" parent="uhhtUNB6FmitXAAVwI5m-48" vertex="1">
          <mxGeometry x="590" y="450" width="120" height="45" as="geometry" />
        </mxCell>
        <mxCell id="uhhtUNB6FmitXAAVwI5m-25" value="&lt;font style=&quot;font-size: 18px;&quot;&gt;&lt;b&gt;Ollama&lt;/b&gt;&lt;/font&gt;" style="shape=document;whiteSpace=wrap;html=1;boundedLbl=1;" parent="uhhtUNB6FmitXAAVwI5m-48" vertex="1">
          <mxGeometry x="590" y="390" width="110" height="45" as="geometry" />
        </mxCell>
        <mxCell id="uhhtUNB6FmitXAAVwI5m-26" value="&lt;font style=&quot;font-size: 16px;&quot;&gt;&lt;b&gt;Vector DB&lt;/b&gt;&lt;/font&gt;" style="shape=cylinder3;whiteSpace=wrap;html=1;boundedLbl=1;backgroundOutline=1;size=15;" parent="uhhtUNB6FmitXAAVwI5m-48" vertex="1">
          <mxGeometry x="210" y="390" width="70" height="77" as="geometry" />
        </mxCell>
        <mxCell id="uhhtUNB6FmitXAAVwI5m-27" value="&lt;font style=&quot;font-size: 16px;&quot;&gt;File&lt;br&gt;Sys&lt;/font&gt;" style="shape=cube;whiteSpace=wrap;html=1;boundedLbl=1;backgroundOutline=1;darkOpacity=0.05;darkOpacity2=0.1;" parent="uhhtUNB6FmitXAAVwI5m-48" vertex="1">
          <mxGeometry x="130" y="390" width="65.94" height="70" as="geometry" />
        </mxCell>
        <mxCell id="uhhtUNB6FmitXAAVwI5m-28" value="Agents" style="shape=umlActor;verticalLabelPosition=bottom;verticalAlign=top;html=1;outlineConnect=0;" parent="uhhtUNB6FmitXAAVwI5m-48" vertex="1">
          <mxGeometry x="965" y="254" width="30" height="60" as="geometry" />
        </mxCell>
        <mxCell id="uhhtUNB6FmitXAAVwI5m-29" value="&lt;b&gt;&lt;font color=&quot;#ff3e17&quot; style=&quot;font-size: 21px;&quot;&gt;LLM Application Stack&amp;nbsp;&lt;/font&gt;&lt;/b&gt;" style="rounded=0;whiteSpace=wrap;html=1;strokeColor=none;" parent="uhhtUNB6FmitXAAVwI5m-48" vertex="1">
          <mxGeometry x="410" width="340" height="40" as="geometry" />
        </mxCell>
        <mxCell id="uhhtUNB6FmitXAAVwI5m-30" value="&lt;font color=&quot;#ff00ff&quot; style=&quot;font-size: 16px;&quot;&gt;&lt;b&gt;Streamlit&lt;/b&gt;&lt;/font&gt;" style="shape=hexagon;perimeter=hexagonPerimeter2;whiteSpace=wrap;html=1;fixedSize=1;" parent="uhhtUNB6FmitXAAVwI5m-48" vertex="1">
          <mxGeometry x="90" y="104.54" width="110" height="25.46" as="geometry" />
        </mxCell>
        <mxCell id="uhhtUNB6FmitXAAVwI5m-34" value="&lt;font color=&quot;#ff00ff&quot; style=&quot;font-size: 16px;&quot;&gt;&lt;b&gt;Chainlit&lt;/b&gt;&lt;/font&gt;" style="shape=hexagon;perimeter=hexagonPerimeter2;whiteSpace=wrap;html=1;fixedSize=1;" parent="uhhtUNB6FmitXAAVwI5m-48" vertex="1">
          <mxGeometry x="200" y="116.29" width="100" height="25.46" as="geometry" />
        </mxCell>
        <mxCell id="uhhtUNB6FmitXAAVwI5m-35" value="&lt;font color=&quot;#ff00ff&quot; style=&quot;font-size: 16px;&quot;&gt;&lt;b&gt;Gradio&lt;/b&gt;&lt;/font&gt;" style="shape=hexagon;perimeter=hexagonPerimeter2;whiteSpace=wrap;html=1;fixedSize=1;" parent="uhhtUNB6FmitXAAVwI5m-48" vertex="1">
          <mxGeometry x="117.97" y="145.96" width="90" height="23.5" as="geometry" />
        </mxCell>
        <mxCell id="uhhtUNB6FmitXAAVwI5m-36" value="&lt;font color=&quot;#ff00ff&quot; style=&quot;font-size: 16px;&quot;&gt;&lt;b&gt;ChatGPT&lt;/b&gt;&lt;/font&gt;" style="shape=hexagon;perimeter=hexagonPerimeter2;whiteSpace=wrap;html=1;fixedSize=1;" parent="uhhtUNB6FmitXAAVwI5m-48" vertex="1">
          <mxGeometry x="910" y="104.54" width="120" height="25.46" as="geometry" />
        </mxCell>
        <mxCell id="uhhtUNB6FmitXAAVwI5m-37" value="&lt;font color=&quot;#ff00ff&quot; style=&quot;font-size: 16px;&quot;&gt;&lt;b&gt;Claude&lt;/b&gt;&lt;/font&gt;" style="shape=hexagon;perimeter=hexagonPerimeter2;whiteSpace=wrap;html=1;fixedSize=1;" parent="uhhtUNB6FmitXAAVwI5m-48" vertex="1">
          <mxGeometry x="930" y="141.75" width="100" height="25.46" as="geometry" />
        </mxCell>
        <mxCell id="uhhtUNB6FmitXAAVwI5m-38" value="&lt;font color=&quot;#ff00ff&quot; style=&quot;font-size: 16px;&quot;&gt;&lt;b&gt;Telegram&amp;nbsp;&lt;br&gt;Bot&lt;br&gt;&lt;/b&gt;&lt;/font&gt;" style="shape=hexagon;perimeter=hexagonPerimeter2;whiteSpace=wrap;html=1;fixedSize=1;" parent="uhhtUNB6FmitXAAVwI5m-48" vertex="1">
          <mxGeometry x="610" y="106.5" width="99" height="47" as="geometry" />
        </mxCell>
        <mxCell id="uhhtUNB6FmitXAAVwI5m-39" value="&lt;font color=&quot;#0000ff&quot; style=&quot;font-size: 16px;&quot;&gt;&lt;b&gt;WizardCoder&lt;/b&gt;&lt;/font&gt;" style="rounded=0;whiteSpace=wrap;html=1;" parent="uhhtUNB6FmitXAAVwI5m-48" vertex="1">
          <mxGeometry x="510" y="572" width="100" height="40" as="geometry" />
        </mxCell>
        <mxCell id="uhhtUNB6FmitXAAVwI5m-40" value="&lt;b&gt;&lt;font style=&quot;font-size: 16px;&quot;&gt;AWS&lt;/font&gt;&lt;/b&gt;" style="ellipse;shape=cloud;whiteSpace=wrap;html=1;" parent="uhhtUNB6FmitXAAVwI5m-48" vertex="1">
          <mxGeometry x="691" y="697" width="100" height="70" as="geometry" />
        </mxCell>
        <mxCell id="uhhtUNB6FmitXAAVwI5m-41" value="&lt;b style=&quot;border-color: var(--border-color);&quot;&gt;&lt;font style=&quot;border-color: var(--border-color); font-size: 16px;&quot;&gt;GCP&lt;/font&gt;&lt;/b&gt;" style="ellipse;shape=cloud;whiteSpace=wrap;html=1;" parent="uhhtUNB6FmitXAAVwI5m-48" vertex="1">
          <mxGeometry x="801" y="697" width="100" height="70" as="geometry" />
        </mxCell>
        <mxCell id="uhhtUNB6FmitXAAVwI5m-42" value="&lt;b style=&quot;border-color: var(--border-color);&quot;&gt;&lt;font style=&quot;border-color: var(--border-color); font-size: 16px;&quot;&gt;Azure&lt;/font&gt;&lt;/b&gt;" style="ellipse;shape=cloud;whiteSpace=wrap;html=1;" parent="uhhtUNB6FmitXAAVwI5m-48" vertex="1">
          <mxGeometry x="580" y="697" width="100" height="70" as="geometry" />
        </mxCell>
        <mxCell id="uhhtUNB6FmitXAAVwI5m-44" value="&lt;font style=&quot;font-size: 16px;&quot;&gt;&lt;b&gt;RDMS&lt;/b&gt;&lt;/font&gt;" style="shape=cylinder3;whiteSpace=wrap;html=1;boundedLbl=1;backgroundOutline=1;size=15;" parent="uhhtUNB6FmitXAAVwI5m-48" vertex="1">
          <mxGeometry x="290" y="392" width="70" height="77" as="geometry" />
        </mxCell>
        <mxCell id="uhhtUNB6FmitXAAVwI5m-45" value="&lt;font color=&quot;#0000ff&quot; style=&quot;font-size: 16px;&quot;&gt;&lt;b&gt;Llama2&lt;/b&gt;&lt;/font&gt;" style="rounded=0;whiteSpace=wrap;html=1;" parent="uhhtUNB6FmitXAAVwI5m-48" vertex="1">
          <mxGeometry x="405" y="574" width="90" height="40" as="geometry" />
        </mxCell>
        <mxCell id="uhhtUNB6FmitXAAVwI5m-46" value="&lt;font style=&quot;font-size: 18px;&quot;&gt;&lt;b&gt;llmware&lt;/b&gt;&lt;/font&gt;" style="shape=document;whiteSpace=wrap;html=1;boundedLbl=1;" parent="uhhtUNB6FmitXAAVwI5m-48" vertex="1">
          <mxGeometry x="240" y="295.01" width="80" height="45" as="geometry" />
        </mxCell>
        <mxCell id="JLPEa77Uh13Zxa8-wWIW-1" value="&lt;font style=&quot;font-size: 18px;&quot;&gt;&lt;b&gt;txtai&lt;/b&gt;&lt;/font&gt;" style="shape=document;whiteSpace=wrap;html=1;boundedLbl=1;" parent="uhhtUNB6FmitXAAVwI5m-48" vertex="1">
          <mxGeometry x="146" y="295.01" width="80" height="45" as="geometry" />
        </mxCell>
        <mxCell id="oleBlqP1BbrzKMwtvfZZ-2" value="&lt;font color=&quot;#ff00ff&quot; style=&quot;font-size: 16px;&quot;&gt;&lt;b&gt;AutoGen&lt;br&gt;Studio&lt;br&gt;&lt;/b&gt;&lt;/font&gt;" style="shape=hexagon;perimeter=hexagonPerimeter2;whiteSpace=wrap;html=1;fixedSize=1;" parent="uhhtUNB6FmitXAAVwI5m-48" vertex="1">
          <mxGeometry x="740" y="106.5" width="96" height="47" as="geometry" />
        </mxCell>
        <mxCell id="9qQmUJHSrcrS_1e3mnja-1" value="&lt;font color=&quot;#ff00ff&quot; style=&quot;font-size: 16px;&quot;&gt;&lt;b&gt;Ollama &lt;br&gt;WebUI&lt;br&gt;&lt;/b&gt;&lt;/font&gt;" style="shape=hexagon;perimeter=hexagonPerimeter2;whiteSpace=wrap;html=1;fixedSize=1;" vertex="1" parent="uhhtUNB6FmitXAAVwI5m-48">
          <mxGeometry x="460" y="106.5" width="120" height="47" as="geometry" />
        </mxCell>
        <mxCell id="9qQmUJHSrcrS_1e3mnja-2" value="&lt;font color=&quot;#ff00ff&quot; style=&quot;font-size: 16px;&quot;&gt;&lt;b&gt;RasaGPT&lt;br&gt;&lt;/b&gt;&lt;/font&gt;" style="shape=hexagon;perimeter=hexagonPerimeter2;whiteSpace=wrap;html=1;fixedSize=1;" vertex="1" parent="uhhtUNB6FmitXAAVwI5m-48">
          <mxGeometry x="330" y="106.5" width="100" height="47" as="geometry" />
        </mxCell>
        <mxCell id="9qQmUJHSrcrS_1e3mnja-3" value="&lt;font color=&quot;#ff00ff&quot; style=&quot;font-size: 16px;&quot;&gt;&lt;b&gt;Bard&lt;/b&gt;&lt;/font&gt;" style="shape=hexagon;perimeter=hexagonPerimeter2;whiteSpace=wrap;html=1;fixedSize=1;" vertex="1" parent="uhhtUNB6FmitXAAVwI5m-48">
          <mxGeometry x="860" y="130" width="76" height="25.46" as="geometry" />
        </mxCell>
        <mxCell id="9qQmUJHSrcrS_1e3mnja-4" value="&lt;font style=&quot;font-size: 18px;&quot;&gt;&lt;b&gt;PostgresML&lt;/b&gt;&lt;/font&gt;" style="shape=document;whiteSpace=wrap;html=1;boundedLbl=1;" vertex="1" parent="uhhtUNB6FmitXAAVwI5m-48">
          <mxGeometry x="740" y="214" width="110" height="45" as="geometry" />
        </mxCell>
      </root>
    </mxGraphModel>
  </diagram>
</mxfile>
